<svg xmlns="http://www.w3.org/2000/svg" viewBox="0 0 161.71 35.57"><defs><style>.cls-1{fill:#007f01;}.cls-2{fill:#76b776;}.cls-3{fill:none;}.cls-4{fill:#799979;}</style></defs><title>1Asset 2</title><g id="Layer_2" data-name="Layer 2"><g id="Layer_1-2" data-name="Layer 1"><path d="M92.55,11.09a8.23,8.23,0,0,1,.2,3.68,7.37,7.37,0,0,1-1.29,3.07A6.91,6.91,0,0,1,89,19.93a7.57,7.57,0,0,1-3.46.78,8,8,0,0,1-2.92-.56A7.17,7.17,0,0,1,80,18.44a8.41,8.41,0,0,1-1.8-2.91,10.47,10.47,0,0,1-.59-4.15,11.71,11.71,0,0,1,1.07-4.81,10.91,10.91,0,0,1,2.38-3.29,9.7,9.7,0,0,1,6-2.56,4.46,4.46,0,0,1,2.27.44,1.48,1.48,0,0,1,.88,1.42,4.7,4.7,0,0,1-.13,1.07,7.18,7.18,0,0,1-.35,1.11,4.6,4.6,0,0,1-.51.95,1.54,1.54,0,0,1-.64.56,6,6,0,0,0-2.25-.66,5.41,5.41,0,0,0-2,.23,5.33,5.33,0,0,0-1.74.95,7.35,7.35,0,0,0-1.36,1.45A6.76,6.76,0,0,0,80.33,10,6.19,6.19,0,0,0,80,11.82a3,3,0,0,0,.35,1.48,4.86,4.86,0,0,0,1.1,1.43,6.24,6.24,0,0,0,1.7,1.1,5.25,5.25,0,0,0,2.18.44,5.74,5.74,0,0,0,2.6-.6A8.82,8.82,0,0,0,90,14.23a7.5,7.5,0,0,0,1.4-1.73,3.14,3.14,0,0,0,.51-1.45c0-.27,0-.42.1-.45s.14,0,.22.07A3.41,3.41,0,0,1,92.55,11.09Z"/><path d="M92.46,7.59a10.74,10.74,0,0,1,.34-2.78,12,12,0,0,1,.77-2.15,7.69,7.69,0,0,1,.85-1.4,2.91,2.91,0,0,1,.53-.57,1.56,1.56,0,0,1,1-.1,2.81,2.81,0,0,1,.92.36,3.17,3.17,0,0,1,.72.6,1.6,1.6,0,0,1,.35.54.65.65,0,0,1,0,.39.38.38,0,0,1-.29.31q-.32.56-.76,1.49a5.82,5.82,0,0,0-.44,2.45,7.07,7.07,0,0,0,.26,2.07,5,5,0,0,0,.61,1.36,2.87,2.87,0,0,0,.68.75,1.11,1.11,0,0,0,.45.23A.87.87,0,0,0,99,10.9a3,3,0,0,0,.72-.88,6.68,6.68,0,0,0,.61-1.52,8,8,0,0,0,.26-2.21,5.66,5.66,0,0,0-.42-2.45,3.51,3.51,0,0,0-.92-1.23,2.14,2.14,0,0,0-1.31-.44l-.12,0L98,2.09c.08,0,.11-.09.09-.15l-.12-.09c-.06,0-.09-.08-.09-.12l.09-.19a.47.47,0,0,1,.26-.22,2.75,2.75,0,0,1,1.55-.12,4.6,4.6,0,0,1,2,.82A5.73,5.73,0,0,1,103.37,4a6.66,6.66,0,0,1,.72,3.29,11.63,11.63,0,0,1-.39,3.08,8.24,8.24,0,0,1-1.14,2.53,5.83,5.83,0,0,1-1.78,1.71,4.15,4.15,0,0,1-2.29.6,4.33,4.33,0,0,1-2.56-.86,7.58,7.58,0,0,1-1.89-2,10.42,10.42,0,0,1-1.17-2.47A7.57,7.57,0,0,1,92.46,7.59Zm.44,9.32a6.71,6.71,0,0,1,1.75-.57,22.38,22.38,0,0,1,2.7-.38c1-.09,2.13-.15,3.32-.19s2.38,0,3.58,0,2.36.06,3.48.13,2.13.16,3,.28a17,17,0,0,1,2.21.41,1.8,1.8,0,0,1,1,.53s0,0-.06,0l-.09,0,.38.47q-2-.35-4.06-.59l-1.86-.16c-.65,0-1.31-.08-2-.1s-1.34,0-2,0-1.29.08-1.9.16a24.48,24.48,0,0,1,2.7-.09q1.45,0,2.85.15t2.69.29l2.28.33,1.58.28a3.59,3.59,0,0,1,.61.15,2,2,0,0,1,.22.35.52.52,0,0,1,.07.32c0,.06,0,.15-.07.28s-.06.26-.1.39a3.15,3.15,0,0,0-.15.53l-.26-.15a40.76,40.76,0,0,0-4.12-.38q-2.1-.09-4.15,0t-3.93.26q-1.88.19-3.45.42t-2.73.48a17,17,0,0,0-1.78.45,1.36,1.36,0,0,1-1.26-.07,1.85,1.85,0,0,1-.71-1,3.87,3.87,0,0,1-.18-1.46A4.16,4.16,0,0,1,92.9,16.91Zm11.37-9.32a10.74,10.74,0,0,1,.34-2.78,11.79,11.79,0,0,1,.77-2.15,7.83,7.83,0,0,1,.85-1.4,2.82,2.82,0,0,1,.53-.57,1.56,1.56,0,0,1,1-.1,2.83,2.83,0,0,1,.92.36,3.17,3.17,0,0,1,.72.6,1.67,1.67,0,0,1,.35.54.69.69,0,0,1,0,.39.38.38,0,0,1-.29.31q-.32.56-.76,1.49a5.86,5.86,0,0,0-.44,2.45,7.08,7.08,0,0,0,.26,2.07,5.09,5.09,0,0,0,.61,1.36,2.91,2.91,0,0,0,.69.75,1.12,1.12,0,0,0,.45.23.87.87,0,0,0,.57-.25,2.93,2.93,0,0,0,.72-.88,6.57,6.57,0,0,0,.61-1.52,8.11,8.11,0,0,0,.26-2.21A5.66,5.66,0,0,0,112,3.84,3.49,3.49,0,0,0,111,2.62a2.13,2.13,0,0,0-1.31-.44l-.12,0,.15-.06c.08,0,.11-.09.09-.15l-.12-.09c-.06,0-.09-.08-.09-.12l.09-.19a.47.47,0,0,1,.26-.22,2.74,2.74,0,0,1,1.55-.12,4.6,4.6,0,0,1,2,.82A5.76,5.76,0,0,1,115.18,4a6.66,6.66,0,0,1,.72,3.29,11.72,11.72,0,0,1-.39,3.08,8.19,8.19,0,0,1-1.14,2.53,5.83,5.83,0,0,1-1.78,1.71,4.14,4.14,0,0,1-2.29.6,4.34,4.34,0,0,1-2.56-.86,7.58,7.58,0,0,1-1.88-2,10.33,10.33,0,0,1-1.17-2.47A7.5,7.5,0,0,1,104.26,7.59Z"/><path d="M130.56,3.58a9.18,9.18,0,0,1-1.67,3.36,21.79,21.79,0,0,1-3,3.21,10.85,10.85,0,0,1,1.64,2.19,17.29,17.29,0,0,1,1.33,2.84,14.71,14.71,0,0,1,.74,3,6.39,6.39,0,0,1-.09,2.54,8.92,8.92,0,0,0-.13-1.88,12.42,12.42,0,0,0-.37-1.51,7.53,7.53,0,0,0-.55-1.31q.32,1.08.53,2c.12.57.2,1.12.26,1.68a3.56,3.56,0,0,1-.06,1.33l0-.06,0-.06-.06-.06a.71.71,0,0,1-.18.32,2.23,2.23,0,0,1-.19.22c-.07.07-.12.1-.16.1l-.22,0-.28.06-.32.06-.26-.29a15.41,15.41,0,0,0-.8-2.22q-.54-1.23-1.23-2.46t-1.4-2.29q-.72-1.07-1.27-1.74l-1.07.66q-.51.31-1,.54-.06.93-.1,1.68c0,.5-.06.93-.1,1.3s-.07.82-.09,1.17a1.34,1.34,0,0,1-.15.23c-.1.16-.21.36-.35.61a1.11,1.11,0,0,0-.19.29c-.07.14-.13.27-.19.41s-.16.32-.23.5l-.2.09-.2.12a.41.41,0,0,0-.18.15l-.06.13-.09.19c0,.08-.08.16-.12.26h-.23l-.35.59a.45.45,0,0,0-.12-.09.47.47,0,0,0-.18-.06.42.42,0,0,0-.19.23c0,.12-.1.18-.16.18,0-.19-.08-.75-.12-1.68s-.08-2.06-.12-3.39-.08-2.78-.13-4.32-.11-3-.18-4.5-.15-2.76-.23-3.93a21.2,21.2,0,0,0-.31-2.57.45.45,0,0,1,.1-.23.56.56,0,0,1,.33-.2,7.77,7.77,0,0,1,1.24-.18,2.91,2.91,0,0,1,1.52.31,3,3,0,0,1,1.27,1.34,6,6,0,0,1,.47,2.91L121,7.47q0,1.05-.09,2.07.64-.55,1.42-1.36a15.38,15.38,0,0,0,1.52-1.87,17.31,17.31,0,0,0,1.39-2.4A15.76,15.76,0,0,0,126.33,1,.9.9,0,0,1,127,.54a2.14,2.14,0,0,1,1,0,3.65,3.65,0,0,1,1,.45,4.85,4.85,0,0,1,.91.73,3.2,3.2,0,0,1,.61.89A1.34,1.34,0,0,1,130.56,3.58Z"/><path d="M139.07.75a.49.49,0,0,1,.09-.23.47.47,0,0,1,.29-.21,7.75,7.75,0,0,1,1.21-.18,2.7,2.7,0,0,1,1.46.31,2.93,2.93,0,0,1,1.21,1.33,6.27,6.27,0,0,1,.47,2.86q-.06,2.13-.16,4.32t-.25,4q-.15,2.1-.32,4.09l-.09.18-.13.22-.19.31-.16.29a3.78,3.78,0,0,0-.19.38l-.23.5-.2.09a1.26,1.26,0,0,0-.35.29l-.06.13-.09.19a1,1,0,0,0-.09.26l-.23,0-.35.56-.12-.06-.15-.06a.44.44,0,0,0-.19.22q-.07.16-.16.16,0-.2-.07-1.05t-.07-2.09q0-1.24-.07-2.8t-.1-3.23q-.06-1.67-.12-3.33t-.15-3.11q-.09-1.45-.2-2.57T139.07.75Z"/><path d="M152.56.51q2.19.09,4.48.25l4.66.34a4.55,4.55,0,0,1-.26.95,4.13,4.13,0,0,1-.63,1.08,5.78,5.78,0,0,1-1.08,1,5.11,5.11,0,0,1-1.62.79l-2.13.1-2,.1q-.06,2.22-.22,4.46t-.33,4.08q-.21,2.13-.44,4.09l-.64,1.43-.23,0-.47,1.05a.2.2,0,0,0-.09-.09c-.08,0-.17,0-.26.12a1.39,1.39,0,0,0-.18.35,1,1,0,0,0-.09.26h-.23l-.38.58-.26-.73a3.4,3.4,0,0,1-.15.5c0,.14-.08.26-.12.37s-.08.16-.12.16c0-.16,0-.53-.06-1.11s0-1.31,0-2.18,0-1.84,0-2.94,0-2.22-.06-3.37,0-2.32-.07-3.48-.06-2.25-.1-3.29l-3.11.18-1.51.09a1.45,1.45,0,0,1-1-.32,2.35,2.35,0,0,1-.66-.89,3.86,3.86,0,0,1-.29-1.17,4.34,4.34,0,0,1,0-1.18,2.71,2.71,0,0,1,.35-.95.91.91,0,0,1,.66-.45q1.11-.15,2.43-.2t2.81-.06a1,1,0,0,1,.32-.23,3.88,3.88,0,0,1,.64-.15,4.29,4.29,0,0,1,.8,0,3.67,3.67,0,0,1,.85.13A3,3,0,0,1,152.56.51Z"/><path d="M83.77,30.76l2.08-3.5a3,3,0,0,0,.51-1.21.84.84,0,0,0-.27-.6,1.37,1.37,0,0,0-1-.27v-.36h3.45v.36a2,2,0,0,0-1.15.53,8.46,8.46,0,0,0-1.13,1.57l-2.37,3.95v1.4A10.53,10.53,0,0,0,84,34.35a.74.74,0,0,0,.35.52A2.46,2.46,0,0,0,85.4,35v.36h-4.5V35h.17a1.84,1.84,0,0,0,.94-.17.78.78,0,0,0,.33-.53,12,12,0,0,0,.07-1.68v-1.3L79.78,27a10.6,10.6,0,0,0-1.07-1.56,1.42,1.42,0,0,0-.95-.27v-.36H82v.36c-.8,0-1.2.18-1.2.55a2.36,2.36,0,0,0,.4.87Z"/><path d="M88.35,30A5,5,0,0,1,90,26.11a5.85,5.85,0,0,1,4.08-1.48,6,6,0,0,1,4.12,1.46,5.05,5.05,0,0,1,1.65,4,5.25,5.25,0,0,1-1.58,4,6.42,6.42,0,0,1-8.29,0A5.27,5.27,0,0,1,88.35,30Zm1.78.06a6.06,6.06,0,0,0,1,3.82,3.66,3.66,0,0,0,3,1.28A3.44,3.44,0,0,0,97,33.91a6,6,0,0,0,1-3.81,6,6,0,0,0-1-3.77,4,4,0,0,0-5.88,0A6,6,0,0,0,90.13,30.09Z"/><path d="M109.07,24.82h3.53v.36a1.9,1.9,0,0,0-1,.31,1.09,1.09,0,0,0-.43.6,7,7,0,0,0-.08,1.3v3.51a14.06,14.06,0,0,1-.1,2,2.79,2.79,0,0,1-.61,1.28,3.4,3.4,0,0,1-1.41,1,5.5,5.5,0,0,1-2.1.37,5.39,5.39,0,0,1-2.39-.48A3,3,0,0,1,103,33.86a4.21,4.21,0,0,1-.42-2V27.45a10.85,10.85,0,0,0-.07-1.63.71.71,0,0,0-.31-.51,2.44,2.44,0,0,0-1-.14H101v-.36h4.82v.36h-.21a2.55,2.55,0,0,0-1,.13.68.68,0,0,0-.32.48,9.78,9.78,0,0,0-.08,1.66v3.32a12.94,12.94,0,0,0,.16,2.45,2.14,2.14,0,0,0,.9,1.26,3.25,3.25,0,0,0,2,.54,4.17,4.17,0,0,0,1.76-.36,2.88,2.88,0,0,0,1.17-.9,2.55,2.55,0,0,0,.47-1.11,13.37,13.37,0,0,0,.09-1.8v-3.6a5.18,5.18,0,0,0-.1-1.25,1,1,0,0,0-.43-.57,2.35,2.35,0,0,0-1.06-.26Z"/><path d="M124.52,35.38h-2.84a12.72,12.72,0,0,1-2.31-2.77c-.33-.48-.68-.94-1-1.37a5.5,5.5,0,0,0-.74-.8,1.1,1.1,0,0,0-.63-.14h-.42v2.34a13.59,13.59,0,0,0,.06,1.63.82.82,0,0,0,.31.57,1.76,1.76,0,0,0,1,.19h.51v.36h-5V35h.34a1.84,1.84,0,0,0,.94-.17.77.77,0,0,0,.33-.53,11.86,11.86,0,0,0,.07-1.68V27.45a11.3,11.3,0,0,0-.07-1.63.69.69,0,0,0-.31-.51,2.47,2.47,0,0,0-1-.14h-.18v-.36l1.51-.08c1,0,1.81-.07,2.4-.07a8.89,8.89,0,0,1,2.46.28,3.28,3.28,0,0,1,1.53.92,2.18,2.18,0,0,1,.58,1.53,2.35,2.35,0,0,1-.76,1.77,3.81,3.81,0,0,1-2.24.91,8.49,8.49,0,0,1,2.13,2.3,10.73,10.73,0,0,0,1.88,2.11,2.83,2.83,0,0,0,1.62.53Zm-8-5.45,1.21,0a4.61,4.61,0,0,0,1.08-.17,1.87,1.87,0,0,0,.74-.41,1.84,1.84,0,0,0,.45-.7,3.08,3.08,0,0,0,.16-1.07,2.69,2.69,0,0,0-.56-1.78,3.16,3.16,0,0,0-2.42-.67l-.66,0Z"/><path d="M125.47,35.27V31.88h.39q.66,3.31,3.14,3.31a2.28,2.28,0,0,0,1.72-.63,2,2,0,0,0,.61-1.42,1.81,1.81,0,0,0-.54-1.33,6.64,6.64,0,0,0-2-1.14,14.34,14.34,0,0,1-1.92-1,2.9,2.9,0,0,1-1-1.06,2.83,2.83,0,0,1-.36-1.39,2.49,2.49,0,0,1,.78-1.88,2.75,2.75,0,0,1,2-.75,3.6,3.6,0,0,1,1.26.22,3.25,3.25,0,0,1,1.21.9,1.67,1.67,0,0,0,.4-.93h.34v2.76h-.34a3.71,3.71,0,0,0-1-1.9,2.49,2.49,0,0,0-1.74-.69,1.72,1.72,0,0,0-1.38.51,1.68,1.68,0,0,0-.44,1.12,1.62,1.62,0,0,0,.55,1.24,7.57,7.57,0,0,0,2,1.15,20.21,20.21,0,0,1,2,1,2.75,2.75,0,0,1,1,1,3,3,0,0,1,.37,1.51,2.89,2.89,0,0,1-.9,2.2,3.39,3.39,0,0,1-2.41.85,3.69,3.69,0,0,1-2.89-1.33,2.64,2.64,0,0,0-.38,1Z"/><path d="M142.28,32.09h.37l-.23,3.29h-8.74V35h.22a1.62,1.62,0,0,0,1-.21.93.93,0,0,0,.29-.53,12.09,12.09,0,0,0,.06-1.65V27.45a11.68,11.68,0,0,0-.07-1.59.75.75,0,0,0-.3-.53,2.16,2.16,0,0,0-1-.15v-.36h7.54l.25,2.63h-.37a4.11,4.11,0,0,0-.61-1.57,1.55,1.55,0,0,0-.86-.59,7.62,7.62,0,0,0-1.6-.12H136.8v4.43h1.12a3,3,0,0,0,1.08-.13.7.7,0,0,0,.41-.4,3.65,3.65,0,0,0,.1-1h.37v3.61h-.37a3.11,3.11,0,0,0-.15-1.18.72.72,0,0,0-.43-.39,3.56,3.56,0,0,0-1-.09H136.8v2.5a5.42,5.42,0,0,0,.24,2.21c.16.22.59.33,1.3.33h.79a3.75,3.75,0,0,0,1.37-.21,2.46,2.46,0,0,0,1-.88A5.18,5.18,0,0,0,142.28,32.09Z"/><path d="M152.64,32.27l-.08,3.11h-9V35h.31a1.84,1.84,0,0,0,.94-.17.79.79,0,0,0,.33-.53,11.26,11.26,0,0,0,.08-1.68V27.45a10.74,10.74,0,0,0-.08-1.63.71.71,0,0,0-.31-.51,2.44,2.44,0,0,0-1-.14h-.23v-.36h5.07v.36h-.47a2.55,2.55,0,0,0-1,.13.68.68,0,0,0-.32.48,10,10,0,0,0-.08,1.66V33a9.67,9.67,0,0,0,.06,1.43.67.67,0,0,0,.34.45,2.8,2.8,0,0,0,1.19.16h.8a4.56,4.56,0,0,0,1.45-.17,2,2,0,0,0,.89-.75,5.85,5.85,0,0,0,.78-1.83Z"/><path d="M161.42,24.82l.09,2.63h-.37a3.27,3.27,0,0,0-.49-1.43,1.66,1.66,0,0,0-.79-.7,4.85,4.85,0,0,0-1.39-.14h-2.06v4.48h1a1.82,1.82,0,0,0,1.27-.32A1.91,1.91,0,0,0,159,28h.39v3.72H159a3.44,3.44,0,0,0-.14-1.07.91.91,0,0,0-.41-.54,2.53,2.53,0,0,0-1-.14h-1v2.62a13,13,0,0,0,.06,1.63.84.84,0,0,0,.31.57,1.78,1.78,0,0,0,1,.19h.36v.36h-4.9V35h.33a1.85,1.85,0,0,0,.94-.17.8.8,0,0,0,.33-.53,11.39,11.39,0,0,0,.07-1.68V27.45a10.85,10.85,0,0,0-.07-1.63.71.71,0,0,0-.31-.51,2.42,2.42,0,0,0-1-.14h-.19v-.36Z"/><path class="cls-1" d="M68.87,25.19H38.6V14.4A13.19,13.19,0,0,0,47,18c3.2.23,9.18-3.36,12.38-3.3a29.16,29.16,0,0,1,8.74,2.1Z"/><path class="cls-2" d="M69.16,29.41H38.9V18.61a13.19,13.19,0,0,0,8.35,3.65c3.2.23,9.18-3.36,12.38-3.3a29.16,29.16,0,0,1,8.74,2.1Z"/><path class="cls-3" d="M59.64,23.29A26.63,26.63,0,0,1,67.4,25a7,7,0,0,0,.08-.74V5.83H40V23.89a13.61,13.61,0,0,0,7.26,2.7C50.45,26.82,56.43,23.23,59.64,23.29Z"/><path class="cls-4" d="M47.12,31.4H60.35A7.11,7.11,0,0,0,67.4,25a26.63,26.63,0,0,0-7.76-1.72c-3.2-.06-9.19,3.53-12.39,3.3A13.61,13.61,0,0,1,40,23.89v.38A7.13,7.13,0,0,0,47.12,31.4Z"/><path d="M70.72,2.58h-34V24.27a10.27,10.27,0,0,0,2.15,6.25V22.94a9.63,9.63,0,0,0,1.09,1V5.83H67.47V24.27a7,7,0,0,1-.08.74c.6.22,1,.37,1,.37l.45,4.82a10.3,10.3,0,0,0,1.89-5.94Z"/><path d="M47.12,34.64H60.35a10.28,10.28,0,0,0,4.21-.91H42.92A10.28,10.28,0,0,0,47.12,34.64Z"/><path d="M67.4,25a7.11,7.11,0,0,1-7.05,6.38H47.12A7.13,7.13,0,0,1,40,24.27v-.38a9.63,9.63,0,0,1-1.09-1v7.59a10.4,10.4,0,0,0,4,3.21H64.55a10.42,10.42,0,0,0,4.28-3.53l-.45-4.82S68,25.23,67.4,25Z"/><path d="M69,13.21c-15.3,3.52-19.92-2-30.72-1.26L2.31,9.8A2.46,2.46,0,0,1,0,7.35V5A2.46,2.46,0,0,1,2.46,2.58H31.93V5.83H3.25v.78L38.47,8.72c6.32-1.93,17.68,5.4,30.69,1.25Z"/></g></g></svg>